<?xml version="1.0" encoding="utf-8"?>
<!DOCTYPE svg PUBLIC "-//W3C//DTD SVG 1.1//EN" "http://www.w3.org/Graphics/SVG/1.1/DTD/svg11.dtd">
<svg version="1.1" xmlns="http://www.w3.org/2000/svg" xmlns:xlink="http://www.w3.org/1999/xlink" x="0px" y="0px"
	 width="512px" height="512px" viewBox="0 0 512 512" enable-background="new 0 0 512 512" xml:space="preserve">
<path id="copyright-2-icon" d="M256,50C142.229,50,50,142.229,50,256c0,113.77,92.229,206,206,206c113.771,0,206-92.23,206-206
	C462,142.229,369.771,50,256,50z M138.62,373.379c-59.636-59.637-64.451-153.191-14.43-218.311l232.74,232.74
	C291.819,437.822,198.267,433.025,138.62,373.379z M387.403,357.469L222.631,192.698c10.203-5.544,21.884-8.7,34.29-8.7
	c22.326,0,43.936,9.975,59.764,31.802l35.395-23.203c-24.405-34.798-59.704-50.881-95.158-50.881
	c-24.114,0-46.501,7.512-64.965,20.306l-37.426-37.426c65.132-50.452,159.04-45.787,218.85,14.023
	C433.179,198.418,437.863,292.33,387.403,357.469z M302.033,361.148c-14.305,6.17-29.545,9.197-44.925,9.197
	c-63.051,0-114.347-51.295-114.347-114.345c0-15.939,3.286-31.122,9.205-44.918l33.923,33.923
	c-7.392,47.864,33.87,89.612,82.225,82.224L302.033,361.148z"/>
</svg>
