<?xml version="1.0" encoding="utf-8"?>



<!DOCTYPE svg PUBLIC "-//W3C//DTD SVG 1.1//EN" "http://www.w3.org/Graphics/SVG/1.1/DTD/svg11.dtd">

<svg version="1.1" xmlns="http://www.w3.org/2000/svg" xmlns:xlink="http://www.w3.org/1999/xlink" x="0px" y="0px"

	 width="512px" height="512px" viewBox="0 0 512 512" enable-background="new 0 0 512 512" xml:space="preserve">

<path id="danger-6-icon" d="M363.354,217.701c24.596-61.033-7.076-132.432-72.271-153.27l-0.193,7.718

	c44.283,20.466,60.801,73.972,37.164,115.565c-22.492,39.582-72.814,53.436-112.395,30.941

	c-39.582-22.492-53.434-72.812-30.941-112.394c8.822-15.525,21.936-27.071,36.994-34.038l-0.023-8.031

	c-27.092,8.401-51.172,26.717-66.291,53.322c-18.098,31.845-19.422,68.641-6.799,100.193

	c-64.436,9.514-110.053,71.885-96.066,138.356l6.805-3.645c-4.084-48.613,34.275-89.408,82.115-89.408

	c45.525,0,82.432,36.906,82.432,82.432s-36.906,82.43-82.432,82.43c-17.857,0-34.373-5.695-47.871-15.346l-6.969,3.988

	c20.688,19.402,48.51,31.291,79.111,31.291c36.518,0,69.076-16.926,90.275-43.354c21.201,26.428,53.76,43.354,90.277,43.354

	c30.602,0,58.424-11.889,79.111-31.291l-6.969-3.988c-13.498,9.65-30.014,15.346-47.871,15.346

	c-45.525,0-82.432-36.904-82.432-82.43s36.906-82.432,82.432-82.432c47.84,0,86.199,40.795,82.115,89.408l6.805,3.645

	C473.458,289.578,427.815,227.193,363.354,217.701z M255.999,305.262c-14.221,0-25.75-11.527-25.75-25.75

	c0-14.221,11.529-25.749,25.75-25.749c14.223,0,25.75,11.528,25.75,25.749C281.749,293.734,270.222,305.262,255.999,305.262z

	 M315.458,374.779c-5.07-9.484-7.682-20.186-7.287-31.523c15.828-12.592,27.016-30.758,30.574-51.508

	c9.131-5.43,19.754-8.592,31.098-8.719C367.989,321.883,346.688,355.639,315.458,374.779z M203.829,343.293

	c0.385,11.246-2.18,21.943-7.299,31.508c-31.25-19.137-52.566-52.904-54.418-91.773c11.338,0.119,21.959,3.273,31.09,8.691

	C176.759,312.502,187.97,330.693,203.829,343.293z M201.745,177.214c33.922-18.38,75.193-18.287,109.07,0.338

	c-4.914,8.854-12.43,16.908-21.906,22.693c-20.846-8.918-44.539-8.975-65.4-0.199C214.3,194.353,206.868,186.515,201.745,177.214z"

	/>

</svg>

